<svg data-v-423bf9ae="" xmlns="http://www.w3.org/2000/svg" viewBox="0 0 275.84943617686315 60" class="font"><!----><!----><!----><g data-v-423bf9ae="" id="a893fd5a-3adf-4cc3-81b4-6b589464f3c0" fill="white" transform="matrix(5.7915059834320255,0,0,5.7915059834320255,-4.459463019932912,-4.76837158203125e-7)"><path d="M4.00 10.36C6.12 10.36 7.24 8.92 7.24 7.56C7.24 6.16 6.17 5.33 4.65 4.96L3.35 4.65C1.90 4.31 1.76 3.54 1.76 3.09C1.76 2.02 2.79 1.33 3.88 1.33C5.04 1.33 5.92 2.02 5.98 3.08L6.90 3.08C6.85 1.47 5.54 0.46 3.91 0.46C2.31 0.46 0.84 1.50 0.84 3.09C0.84 3.86 1.13 5.03 3.12 5.50L4.42 5.81C5.38 6.05 6.31 6.55 6.31 7.60C6.31 8.51 5.54 9.49 4.00 9.49C2.65 9.49 1.78 8.58 1.68 7.63L0.77 7.63C0.84 9.03 2.11 10.36 4.00 10.36ZM11.82 3.68L10.32 3.68L10.32 1.08L9.44 1.08L9.44 3.68L8.25 3.68L8.25 4.45L9.44 4.45L9.44 10.22L10.32 10.22L10.32 4.45L11.82 4.45ZM16.02 10.36C17.88 10.36 19.45 9.00 19.45 6.93C19.45 4.86 17.88 3.54 16.02 3.54C14.15 3.54 12.60 4.86 12.60 6.93C12.60 9.00 14.15 10.36 16.02 10.36ZM16.02 9.51C14.63 9.51 13.50 8.48 13.50 6.93C13.50 5.39 14.63 4.40 16.02 4.40C17.39 4.40 18.55 5.39 18.55 6.93C18.55 8.48 17.39 9.51 16.02 9.51ZM24.23 10.35C25.17 10.35 26.00 10.01 26.59 9.45L26.03 8.85C25.58 9.25 24.96 9.49 24.26 9.49C22.83 9.49 21.67 8.47 21.67 6.94C21.67 5.40 22.83 4.40 24.26 4.40C24.96 4.40 25.58 4.65 26.03 5.05L26.59 4.44C26.00 3.89 25.17 3.54 24.23 3.54C22.37 3.54 20.78 4.87 20.78 6.94C20.78 9.02 22.37 10.35 24.23 10.35ZM33.66 10.22L30.03 6.52L32.83 3.68L31.58 3.68L29.13 6.19L29.13 0L28.24 0L28.24 10.22L29.13 10.22L29.13 6.86L32.44 10.22ZM34.68 10.22L35.57 10.22L35.57 0L34.68 0ZM43.92 6.93C43.92 4.86 42.56 3.54 40.70 3.54C38.85 3.54 37.37 4.86 37.37 6.93C37.37 9.00 38.85 10.36 40.70 10.36C41.93 10.36 43.05 9.77 43.62 8.72L42.85 8.39C42.42 9.10 41.62 9.51 40.73 9.51C39.41 9.51 38.43 8.72 38.28 7.32L43.90 7.32C43.92 7.20 43.92 7.06 43.92 6.93ZM38.29 6.55C38.46 5.15 39.41 4.40 40.70 4.40C41.97 4.40 42.91 5.19 43.04 6.55ZM48.40 3.68L46.90 3.68L46.90 1.08L46.02 1.08L46.02 3.68L44.83 3.68L44.83 4.45L46.02 4.45L46.02 10.22L46.90 10.22L46.90 4.45L48.40 4.45Z"></path></g><!----><!----></svg>